<svg width="200" height="60" viewBox="0 0 200 60" xmlns="http://www.w3.org/2000/svg">
  <g transform="translate(10, 10)">
    <path d="M 0 25 A 25 25 0 0 1 25 0" stroke="#3895d3" stroke-width="4.5" fill="none" />
    <path d="M 8 25 A 17 17 0 0 1 25 8" stroke="#3895d3" stroke-width="4.5" fill="none" />
    <path d="M 16 25 A 9 9 0 0 1 25 16" stroke="#3895d3" stroke-width="4.5" fill="none" />
    
    <path d="M 40 15 A 25 25 0 0 1 15 40" stroke="#7ac142" stroke-width="4.5" fill="none" />
    <path d="M 32 15 A 17 17 0 0 1 15 32" stroke="#7ac142" stroke-width="4.5" fill="none" />
    <path d="M 24 15 A 9 9 0 0 1 15 24" stroke="#7ac142" stroke-width="4.5" fill="none" />
  </g>
  <text x="58" y="42" font-family="Arial, sans-serif" font-size="42" font-weight="900" fill="#172b4d" letter-spacing="-1">Sell</text>
  <text x="61" y="54" font-family="Arial, sans-serif" font-size="9" font-weight="bold" fill="#172b4d" letter-spacing="2.5">ADMINISTRADORA</text>
</svg>
